<svg xmlns="http://www.w3.org/2000/svg" fill="none" viewBox="0 0 25 25" stroke-width="1.75" stroke="white" class="size-6">
  <path stroke-linecap="round" stroke-linejoin="round" d="M19.5 12c0-1.232-.046-2.453-.138-3.662a4.006 4.006 0 0 0-3.7-3.7 48.678 48.678 0 0 0-7.324 0 4.006 4.006 0 0 0-3.7 3.7c-.017.22-.032.441-.046.662M19.5 12l3-3m-3 3-3-3m-12 3c0 1.232.046 2.453.138 3.662a4.006 4.006 0 0 0 3.7 3.7 48.656 48.656 0 0 0 7.324 0 4.006 4.006 0 0 0 3.7-3.7c.017-.22.032-.441.046-.662M4.5 12l3 3m-3-3-3 3" />
  <!-- Larger badge at bottom-right -->
  <circle cx="20" cy="19.5" r="5" fill="white" stroke="none"/>
  <text x="20" y="22.5" text-anchor="middle" font-size="7.5" font-family="sans-serif" font-weight="bold" fill="#1a1a1a" stroke="none">1</text>
</svg>
