<svg xmlns="http://www.w3.org/2000/svg" viewBox="0 0 24 24" fill="white">
  <g transform="translate(2,2) scale(0.85)">
    <g transform="scale(-1,1) translate(-24,0)">
      <path d="M23,7.4c-0.6-0.3-1.3-0.1-1.6,0.5l-0.4,0.7
        C19.6,4.6,15.7,1.5,11,1.5C5.2,1.5,0.5,6.2,0.5,12s4.7,10.5,10.5,10.5
        c0.7,0,1.2-0.5,1.2-1.2s-0.5-1.2-1.2-1.2C6.9,20.1,3.4,16.6,3.4,12S6.9,3.9,11,3.9
        c3.5,0,6.5,2.3,7.6,5.3l-0.7-0.4c-0.6-0.3-1.3-0.1-1.6,0.5c-0.3,0.6-0.1,1.3,0.5,1.6
        l2.5,1.4c0.2,0.4,0.6,0.7,1.1,0.7c0.1,0,0.2,0,0.3,0c0.4,0,0.9-0.2,1.1-0.6l1.9-3.4
        C23.8,8.5,23.6,7.7,23,7.4z"/>
    </g>
  </g>
</svg>
